<svg width="1042" height="573" viewBox="0 0 1042 573" fill="none" xmlns="http://www.w3.org/2000/svg">
<g id="undraw_ninja_e52b 1" clip-path="url(#clip0)">
<path id="Vector" d="M357.93 356.86C359 354.71 360.78 353.01 362.26 351.11C362.045 351.288 361.822 351.455 361.59 351.61C360.495 352.075 359.482 352.713 358.59 353.5C358.044 354.258 357.674 355.13 357.51 356.05L354.96 365.96C355.46 365.33 355.96 364.71 356.47 364.09C356.438 361.604 356.935 359.139 357.93 356.86V356.86Z" fill="#F2F2F2"/>
<path id="Vector_2" d="M458.44 356.89C458.425 355.585 458.16 354.295 457.66 353.09C457.142 352.11 456.489 351.208 455.72 350.41L453.56 347.95C452.46 374.07 450.12 400.26 454.98 425.84C455.77 429.98 456.82 434.24 459.48 437.51C460.191 438.202 460.718 439.062 461.01 440.01C465.01 424.41 462.76 407.51 460.4 391.37C460.17 389.618 459.82 387.884 459.35 386.18C457.574 379.637 457.159 372.8 458.13 366.09C458.534 363.041 458.638 359.959 458.44 356.89V356.89Z" fill="#F2F2F2"/>
<path id="Vector_3" d="M470.82 301.76C473.71 306.52 475.51 312.16 477.13 317.55L477.82 319.88C477.49 311.98 477.33 304.07 477.27 296.16C475.71 297.547 474.14 298.917 472.56 300.27L470.82 301.76Z" fill="#F2F2F2"/>
<path id="Vector_4" d="M494.07 568.33C494.508 562.791 494.079 557.217 492.8 551.81C491.92 548.38 490.56 545.03 490.44 541.5C490.465 539.142 490.753 536.794 491.3 534.5C495.41 513.59 497.18 491.61 490.96 471.23C489.29 465.77 487.08 460.49 485.38 455.05C484.605 457.092 483.662 459.065 482.56 460.95C482.325 460.072 481.897 459.257 481.307 458.565C480.717 457.873 479.98 457.321 479.15 456.95C479.197 457.92 479.173 458.893 479.08 459.86C478.782 463.128 478.318 466.379 477.69 469.6C477.524 470.886 477.106 472.126 476.46 473.25C475.634 474.399 474.524 475.315 473.24 475.91C473.82 477.23 474.4 478.54 474.97 479.91L470.8 481.09C473.54 487.09 471.26 493.94 469.8 500.31C464.57 522.5 469.28 546.2 466.8 568.64L494.07 568.33Z" fill="#F2F2F2"/>
<path id="Vector_5" d="M478.93 250.86C480 248.71 481.78 247.01 483.26 245.11C483.045 245.288 482.822 245.455 482.59 245.61C481.495 246.075 480.482 246.713 479.59 247.5C479.044 248.258 478.674 249.13 478.51 250.05L475.96 259.96C476.46 259.33 476.96 258.71 477.47 258.09C477.438 255.604 477.936 253.139 478.93 250.86V250.86Z" fill="#F2F2F2"/>
<path id="Vector_6" d="M535.83 447.46L532.41 567.91L541.41 567.81C539.825 553.152 539.104 538.413 539.25 523.67C539.25 519.38 539.4 515.04 538.51 510.85C537.88 507.92 536.78 505.11 536.18 502.17C535.591 498.652 535.367 495.084 535.51 491.52L535.83 447.46Z" fill="#F2F2F2"/>
<path id="Vector_7" d="M458.49 447.53C458.63 447.19 458.77 446.87 458.9 446.53C459.37 445.31 459.79 444.08 460.18 442.84L460.1 442.98C459.31 444.28 458.45 445.53 457.56 446.76C457.88 447 458.19 447.26 458.49 447.53Z" fill="#F2F2F2"/>
<path id="Vector_8" d="M186.49 403.53C186.63 403.19 186.77 402.87 186.9 402.53C187.37 401.31 187.79 400.08 188.18 398.84L188.1 398.98C187.31 400.28 186.45 401.53 185.56 402.76C185.88 403 186.19 403.26 186.49 403.53Z" fill="#F2F2F2"/>
<path id="Vector_9" d="M142.83 509.46C142.243 530.36 141.65 551.26 141.05 572.16L145.34 572.11C144.7 569.45 143.75 566.86 143.2 564.17C142.611 560.652 142.387 557.084 142.53 553.52L142.83 509.46Z" fill="#F2F2F2"/>
<path id="Vector_10" d="M207.08 569.86C205.796 569.265 204.686 568.349 203.86 567.2C203.214 566.076 202.796 564.836 202.63 563.55C202.002 560.329 201.538 557.078 201.24 553.81C201.147 552.843 201.123 551.87 201.17 550.9C200.34 551.271 199.603 551.823 199.013 552.515C198.423 553.207 197.995 554.022 197.76 554.9C194.836 549.726 192.929 544.04 192.14 538.15C191.84 539.15 191.53 540.25 191.14 541.3C189.06 547.49 186.04 553.48 185.44 559.98C185.152 563.898 185.489 567.838 186.44 571.65L206.3 571.44L207.08 569.86Z" fill="#F2F2F2"/>
<path id="Vector_11" d="M220.14 536.84C220.53 538.08 220.95 539.31 221.42 540.53C221.55 540.87 221.69 541.19 221.83 541.53C222.13 541.26 222.44 541 222.76 540.76C221.87 539.53 221.01 538.28 220.22 536.98L220.14 536.84Z" fill="#F2F2F2"/>
<path id="Vector_12" d="M363.41 557.64C362.007 551.682 361.048 545.629 360.54 539.53C358.953 524.863 357.367 510.197 355.78 495.53C355.73 495.14 355.69 494.76 355.65 494.37C355.59 494.56 355.54 494.75 355.48 494.94C354.27 498.49 351.87 501.49 349.48 504.41C347.09 507.33 344.1 510.34 340.59 509.49C339.151 509.016 337.845 508.207 336.78 507.13L328.78 500.22C327.2 498.887 325.63 497.517 324.07 496.11C324 505.76 323.78 515.41 323.28 525.04C323.12 528.04 322.87 531.27 321.43 533.94C324.382 543.109 326.018 552.651 326.29 562.28C326.36 564.89 326.29 567.49 326.21 570.1L349.65 569.85H349.79L367.42 569.66C365.95 565.72 364.47 561.75 363.41 557.64Z" fill="#F2F2F2"/>
<path id="Vector_13" d="M323.81 458.09C324.31 458.71 324.81 459.33 325.32 459.96L322.77 450.09C322.606 449.17 322.236 448.298 321.69 447.54C320.798 446.753 319.785 446.115 318.69 445.65C318.458 445.495 318.235 445.328 318.02 445.15C319.5 447.05 321.28 448.75 322.35 450.9C323.339 453.167 323.837 455.617 323.81 458.09V458.09Z" fill="#F2F2F2"/>
<path id="Vector_14" d="M352.8 414.16C353.43 421.1 353.8 428.07 354.15 435.04C354.5 442.01 354.86 448.8 355.21 455.68C356.026 450.36 357.263 445.114 358.91 439.99C357.47 437.32 357.22 434.14 357.06 431.09C356.56 421.46 356.34 411.81 356.27 402.16C354.74 403.53 353.19 404.87 351.63 406.16C352.212 408.795 352.603 411.469 352.8 414.16V414.16Z" fill="#F2F2F2"/>
<path id="Vector_15" d="M581.56 567.38L589.4 567.29C585.22 543.22 591.25 517.37 585.57 493.29C584.68 489.54 583.57 485.61 583.29 481.8C581.29 487.12 579 492.36 578.48 497.98C577.57 507.72 582.15 517.04 583.85 526.66C586.19 539.93 583.02 553.46 581.61 566.86C581.59 567.09 581.58 567.21 581.56 567.38Z" fill="#F2F2F2"/>
<path id="Vector_16" d="M414.73 569.19C414.73 563.95 414.763 558.707 414.83 553.46C414.677 558.713 414.53 563.96 414.39 569.2L414.73 569.19Z" fill="#F2F2F2"/>
<path id="Vector_17" d="M855.83 417.53C856.13 417.26 856.44 417 856.76 416.76C855.87 415.53 855.01 414.28 854.22 412.98L854.14 412.84C854.53 414.08 854.95 415.31 855.42 416.53C855.55 416.87 855.66 417.19 855.83 417.53Z" fill="#F2F2F2"/>
<path id="Vector_18" d="M595.14 435.84C595.53 437.08 595.95 438.31 596.42 439.53C596.55 439.87 596.69 440.19 596.83 440.53C597.13 440.26 597.44 440 597.76 439.76C596.87 438.53 596.01 437.28 595.22 435.98L595.14 435.84Z" fill="#F2F2F2"/>
<path id="Vector_19" d="M640.49 546.46C640.53 553.22 640.573 559.98 640.62 566.74H641.06L640.49 546.46Z" fill="#F2F2F2"/>
<path id="Vector_20" d="M899.49 523.46C899.557 533.673 899.623 543.877 899.69 554.07L900.35 553.68C900.057 543.607 899.77 533.533 899.49 523.46Z" fill="#F2F2F2"/>
<path id="Vector_21" d="M957.81 334.09C958.31 334.71 958.81 335.33 959.32 335.96L956.77 326.05C956.605 325.13 956.236 324.258 955.69 323.5C954.798 322.713 953.785 322.075 952.69 321.61C952.458 321.455 952.235 321.288 952.02 321.11C953.5 323.01 955.28 324.71 956.35 326.86C957.344 329.139 957.842 331.604 957.81 334.09Z" fill="#F2F2F2"/>
<path id="Vector_22" d="M660.66 548.22V572.22H145.66V548.22C145.66 546.364 146.398 544.583 147.71 543.27C149.023 541.958 150.804 541.22 152.66 541.22H653.66C655.517 541.22 657.297 541.958 658.61 543.27C659.923 544.583 660.66 546.364 660.66 548.22V548.22Z" fill="#3F3D56"/>
<path id="Vector_23" d="M465.43 191.52C469.25 195.45 472.92 199.99 473.64 205.42C465.5 207.55 457.17 203.55 449.56 199.98C426.01 188.905 401.142 180.884 375.56 176.11C373.56 175.74 371.42 175.33 369.91 173.95C367.06 171.34 367.58 164.76 370.23 162.05C373.09 159.13 378.38 159.55 382.23 159.34C397.586 158.562 412.934 161.025 427.275 166.57C441.617 172.114 454.63 180.615 465.47 191.52H465.43Z" fill="#192534"/>
<path id="Vector_24" d="M635 572.18H430.45C427.72 565.951 425.571 559.484 424.03 552.86C423.51 550.8 423.03 548.72 422.55 546.65C422.13 544.83 421.73 543 421.35 541.18C420.19 535.707 419.19 530.21 418.35 524.69C417.543 519.49 416.877 514.273 416.35 509.04C415.83 504.033 415.427 499.01 415.14 493.97C415.14 493.83 415.14 493.69 415.14 493.54C415.02 491.15 415.14 488.54 416.78 486.85C418.22 485.4 420.42 485.08 422.47 484.94C439.47 483.78 455.99 489.94 472.95 489.03C477.55 488.76 481.25 488.03 485.53 488.91C486.207 489.037 486.875 489.207 487.53 489.42C488.53 489.73 489.46 490.06 490.41 490.42C496.92 492.75 502.99 495.69 509.99 497C521.91 499.25 534.14 498.81 546.24 499.68C547.24 499.74 548.24 499.82 549.24 499.92C550.47 500.02 551.7 500.15 552.92 500.3C563.289 501.675 573.468 504.224 583.26 507.9C588.54 509.81 593.74 511.97 598.87 514.26C600.34 514.92 601.8 515.58 603.26 516.26C605.86 517.47 608.5 518.75 611.08 520.14C612.08 520.67 613.08 521.21 614.02 521.78C621.79 526.29 628.81 531.89 632.9 539.49C633.21 540.05 633.49 540.62 633.76 541.2C634.03 541.78 634.23 542.27 634.45 542.82C638.02 552.09 636.77 562.09 635 572.18Z" fill="#202F42"/>
<path id="Vector_25" opacity="0.1" d="M635 572.18H430.45C427.72 565.951 425.571 559.484 424.03 552.86C423.51 550.8 423.03 548.72 422.55 546.65C422.13 544.83 421.73 543 421.35 541.18C420.19 535.707 419.19 530.21 418.35 524.69C417.543 519.49 416.877 514.273 416.35 509.04C415.83 504.033 415.427 499.01 415.14 493.97C415.14 493.83 415.14 493.69 415.14 493.54C415.02 491.15 415.14 488.54 416.78 486.85C418.22 485.4 420.42 485.08 422.47 484.94C439.47 483.78 455.99 489.94 472.95 489.03C477.55 488.76 481.25 488.03 485.53 488.91C486.207 489.037 486.875 489.207 487.53 489.42C488.53 489.73 489.46 490.06 490.41 490.42C496.92 492.75 502.99 495.69 509.99 497C521.91 499.25 534.14 498.81 546.24 499.68C547.24 499.74 548.24 499.82 549.24 499.92C550.47 500.02 551.7 500.15 552.92 500.3C563.289 501.675 573.468 504.224 583.26 507.9C588.54 509.81 593.74 511.97 598.87 514.26C600.34 514.92 601.8 515.58 603.26 516.26C605.86 517.47 608.5 518.75 611.08 520.14C612.08 520.67 613.08 521.21 614.02 521.78C621.79 526.29 628.81 531.89 632.9 539.49C633.21 540.05 633.49 540.62 633.76 541.2C634.03 541.78 634.23 542.27 634.45 542.82C638.02 552.09 636.77 562.09 635 572.18Z" fill="black"/>
<path id="Vector_26" d="M448.31 572.18H217.76C212.58 566.48 209.19 559.05 210.03 551.48C210.332 548.333 210.86 545.211 211.61 542.14C211.69 541.81 211.78 541.49 211.87 541.14C213.348 535.326 217.017 530.31 222.11 527.14C231.19 521.31 242.11 519.03 252.11 515.25C257.48 513.25 262.66 510.72 268.03 508.71C275.754 505.925 283.727 503.889 291.84 502.63C292.74 502.48 293.65 502.33 294.55 502.2C295.45 502.07 296.4 501.91 297.33 501.78C302.33 501.06 307.33 500.47 312.38 499.89C323.38 498.6 334.55 497.32 345.62 498.3C354.465 499.218 363.171 501.172 371.56 504.12C377.88 506.23 384.12 508.68 390.32 511.12C399.99 514.94 409.74 518.85 418.37 524.58C419.12 525.08 419.85 525.58 420.58 526.11C426.323 530.28 431.36 535.345 435.5 541.11C437.901 544.415 440.013 547.921 441.81 551.59C444.989 558.092 447.18 565.031 448.31 572.18V572.18Z" fill="#202F42"/>
<path id="Vector_27" d="M382.57 169.02C378.79 177.31 372.38 184.82 363.79 187.87C359.22 189.49 354.29 189.78 349.63 191.11C344.97 192.44 340.27 195.19 338.63 199.74C338.028 201.733 337.738 203.808 337.77 205.89C337.06 225.44 336.48 245.76 344.29 263.7C351.04 279.18 363.41 291.41 375.63 303.07C389.93 316.71 405.07 330.54 423.88 336.64C434.88 340.19 447.83 340.58 456.93 333.51C460.67 330.6 463.45 326.67 466.18 322.79C472.18 314.24 478.28 305.57 482.06 295.79C489.81 275.79 487.2 253.51 484.47 232.26C484.454 230.998 483.977 229.785 483.13 228.85C482.07 227.96 480.52 228.08 479.13 228.16C469.4 228.74 458.78 223.75 455.52 214.57C454.12 210.57 454.16 206.29 454.23 202.09L454.61 177.87C454.61 175.26 454.68 172.56 453.7 170.13C451.99 165.91 447.7 163.44 443.59 161.4C430.338 154.771 416.523 149.33 402.31 145.14C396.09 143.31 391.36 140.26 388.59 146.94C385.66 153.89 385.79 161.95 382.57 169.02Z" fill="#FBBEBE"/>
<path id="Vector_28" opacity="0.1" d="M382.57 169.02C378.79 177.31 372.38 184.82 363.79 187.87C359.22 189.49 354.29 189.78 349.63 191.11C344.97 192.44 340.27 195.19 338.63 199.74C338.028 201.733 337.738 203.808 337.77 205.89C337.06 225.44 336.48 245.76 344.29 263.7C351.04 279.18 363.41 291.41 375.63 303.07C389.93 316.71 405.07 330.54 423.88 336.64C434.88 340.19 447.83 340.58 456.93 333.51C460.67 330.6 463.45 326.67 466.18 322.79C472.18 314.24 478.28 305.57 482.06 295.79C489.81 275.79 487.2 253.51 484.47 232.26C484.454 230.998 483.977 229.785 483.13 228.85C482.07 227.96 480.52 228.08 479.13 228.16C469.4 228.74 458.78 223.75 455.52 214.57C454.12 210.57 454.16 206.29 454.23 202.09L454.61 177.87C454.61 175.26 454.68 172.56 453.7 170.13C451.99 165.91 447.7 163.44 443.59 161.4C430.338 154.771 416.523 149.33 402.31 145.14C396.09 143.31 391.36 140.26 388.59 146.94C385.66 153.89 385.79 161.95 382.57 169.02Z" fill="black"/>
<path id="Vector_29" d="M448.16 188.69C489.029 188.69 522.16 155.559 522.16 114.69C522.16 73.8209 489.029 40.69 448.16 40.69C407.291 40.69 374.16 73.8209 374.16 114.69C374.16 155.559 407.291 188.69 448.16 188.69Z" fill="#FBBEBE"/>
<path id="Vector_30" d="M455.19 230.71L446.92 251.24C445.05 255.88 443.15 260.57 440.27 264.66C432.32 275.93 416.66 281.09 403.6 276.75C391.27 272.68 380.33 261.14 367.6 263.91C361 265.35 355.74 270.65 352.8 276.73C349.86 282.81 348.92 289.65 348.29 296.38C345.381 327.509 348.349 358.908 357.04 388.94C357.94 392.04 359.04 395.29 361.43 397.43C364.35 399.99 368.54 400.37 372.43 400.59C390.43 401.663 408.463 402.297 426.53 402.49C437.63 402.62 448.78 402.58 459.74 400.86C470.7 399.14 481.19 395.86 492 393.7C502.11 391.7 512.46 390.77 522.34 387.86C523.95 387.39 525.65 386.79 526.64 385.45C527.406 384.171 527.756 382.686 527.64 381.2C527.64 375.44 525.85 369.84 523.91 364.42C518.91 350.59 513.07 336.98 510.29 322.55C506.46 302.7 508.71 282.25 508.29 262.03C508.15 254.79 507.65 247.43 505.16 240.62C502.67 233.81 497.96 227.55 491.33 224.62C479.9 219.53 460.66 217.25 455.19 230.71Z" fill="#6C63FF"/>
<path id="Vector_31" d="M414.96 323.025C409.68 318.545 409.96 310.555 409.33 303.655C408.18 290.715 402.55 278.655 397.01 266.895L380.46 231.735C373.54 217.075 366.46 200.385 372.17 185.195C374.08 180.075 377.35 175.515 379.03 170.315C380.71 165.115 380.37 158.615 376.11 155.185C370.69 150.825 362.68 153.795 356.55 157.105C345.28 163.218 334.415 170.049 324.02 177.555C321.2 179.555 318.24 181.925 317.32 185.285C316.75 187.375 317.05 189.665 316.25 191.685C314.69 195.685 309.83 196.885 305.68 197.825C288.576 201.768 272.456 209.157 258.305 219.543C244.154 229.928 232.271 243.09 223.38 258.225C220.431 263.137 218.081 268.384 216.38 273.855C214.38 280.855 213.86 288.125 213.38 295.355C212.1 313.955 210.867 332.545 209.68 351.125C209.15 359.355 208.63 367.785 210.88 375.715C212.33 380.815 214.88 385.585 215.96 390.785C218.15 401.595 213.53 412.635 207.76 422.035C201.99 431.435 194.89 440.255 191.27 450.625C189.143 457.224 188.05 464.112 188.03 471.045C187.498 494.443 193.983 517.465 206.65 537.145C218.94 538.955 228.14 526.735 239.43 521.545C255.98 513.955 276.88 520.035 292.43 510.655C296.23 508.365 299.52 505.245 303.54 503.355C307.19 501.645 311.24 501.035 315.23 500.455C329.97 498.325 344.9 496.355 359.71 497.955C380.71 500.225 402.42 509.555 422.17 502.025C427.04 500.165 431.5 497.355 436.39 495.545C454.39 488.875 474.39 496.845 493.56 495.375C490.56 495.215 489.22 491.815 488.66 488.825C487.4 482.192 486.287 475.525 485.32 468.825C484.47 463.015 483.74 457.045 485.07 451.335C486.29 446.035 489.21 441.335 491.66 436.475C499.39 421.175 502.66 404.015 509.29 388.195C512.44 380.655 516.29 373.455 520.03 366.195C535.129 336.395 546.891 305.018 555.1 272.635C546.37 256.965 538.46 240.635 529.73 224.975C527.2 220.435 524.6 215.815 520.73 212.305C515.19 207.225 507.68 205.015 500.45 202.965C494.24 201.195 487.94 199.415 481.45 199.405C474.96 199.395 456.7 192.615 452.32 197.345C447.8 202.225 457.97 217.985 457.74 224.625C457.51 231.265 458.24 237.985 457.14 244.545C455.54 254.115 450.14 262.645 447.69 272.025C446.721 276.465 445.977 280.95 445.46 285.465C443.827 295.561 441.184 305.467 437.57 315.035C436.911 317.05 435.935 318.947 434.68 320.655C429.94 326.455 422.32 324.255 414.96 323.025Z" fill="#192534"/>
<path id="Vector_32" d="M564.08 433.23C565.98 435.55 568.58 437.14 570.93 438.99C580.18 446.24 585.62 457.27 593.79 465.72C597.91 469.99 602.7 473.56 607.09 477.55C617.3 486.85 625.21 498.34 633.03 509.72C635.03 512.62 637.03 515.59 638.03 518.96C639.78 524.71 638.36 531.12 635.17 536.22C631.98 541.32 627.17 545.22 621.98 548.28C619.271 549.886 616.446 551.29 613.53 552.48C607.53 554.92 601.81 548.31 605.19 542.79C607.336 539.329 609.299 535.757 611.07 532.09C612.2 530.057 612.85 527.793 612.97 525.47C612.89 521.39 609.67 517.93 605.97 516.22C602.27 514.51 598.1 514.22 594.05 513.72C571.147 510.952 549.355 502.282 530.81 488.56C520.31 480.76 510.19 469.33 511.86 456.36C513.1 446.68 520.76 438.98 529.17 434.02C536.001 430.012 543.514 427.3 551.33 426.02C553.53 425.66 559.05 424.15 561.02 425.67C562.77 426.97 562.44 431.23 564.08 433.23Z" fill="#FBBEBE"/>
<path id="Vector_33" opacity="0.1" d="M564.08 433.23C565.98 435.55 568.58 437.14 570.93 438.99C580.18 446.24 585.62 457.27 593.79 465.72C597.91 469.99 602.7 473.56 607.09 477.55C617.3 486.85 625.21 498.34 633.03 509.72C635.03 512.62 637.03 515.59 638.03 518.96C639.78 524.71 638.36 531.12 635.17 536.22C631.98 541.32 627.17 545.22 621.98 548.28C619.271 549.886 616.446 551.29 613.53 552.48C607.53 554.92 601.81 548.31 605.19 542.79C607.336 539.329 609.299 535.757 611.07 532.09C612.2 530.057 612.85 527.793 612.97 525.47C612.89 521.39 609.67 517.93 605.97 516.22C602.27 514.51 598.1 514.22 594.05 513.72C571.147 510.952 549.355 502.282 530.81 488.56C520.31 480.76 510.19 469.33 511.86 456.36C513.1 446.68 520.76 438.98 529.17 434.02C536.001 430.012 543.514 427.3 551.33 426.02C553.53 425.66 559.05 424.15 561.02 425.67C562.77 426.97 562.44 431.23 564.08 433.23Z" fill="black"/>
<path id="Vector_34" d="M480.71 72.88C470.71 83.12 454.65 83.55 440.33 83.3L440.8 77.69L420.66 84.91C425.881 81.0298 430.359 76.2398 433.88 70.77C431.27 68.48 427.18 68.55 424.08 70.13C420.98 71.71 418.7 74.5 416.75 77.38C411.037 85.9367 407.401 95.7089 406.13 105.919C404.859 116.128 405.989 126.494 409.43 136.19C405.43 138.41 400.33 137.76 396.49 135.34C392.65 132.92 389.97 128.98 388.15 124.82C386.96 122.1 385.72 118.88 382.88 118.03C380.5 117.32 377.88 118.77 376.56 120.88C375.376 123.083 374.897 125.596 375.19 128.08C375.56 133.9 379.81 139.42 380.66 145.18C381.51 150.94 390.11 155.42 385.66 159.18C384.38 160.27 371.25 163.24 369.59 162.98C367.34 162.63 365.85 160.46 364.91 158.39C360.43 148.55 362.04 137.05 359.39 126.57C357.26 118.14 352.46 110.66 347.73 103.36C346.46 101.233 344.961 99.2512 343.26 97.45C341.69 95.91 339.75 94.58 338.99 92.52C338.23 90.46 339.63 87.52 341.8 87.85C338.298 84.4633 334.529 81.3633 330.53 78.58C334.49 73.5667 338.363 68.49 342.15 63.35C343.45 61.59 344.8 59.35 343.85 57.35C343.295 56.4337 342.513 55.676 341.58 55.15L331.24 48.15C331.01 43.4 340.68 45.15 342.17 40.66C342.432 39.4667 342.342 38.2229 341.91 37.08L338.39 24.24L351.76 30.3C353.38 31.04 355.11 31.79 356.88 31.53C360.41 31.02 362.11 26.84 362.29 23.27C362.47 19.7 361.9 15.86 363.67 12.75C369.723 12.51 375.773 12.5533 381.82 12.88C382.202 9.83704 381.396 6.76407 379.57 4.3L424.25 1.81999C431.88 1.39999 439.72 1.01 446.97 3.41C449.43 4.23 451.91 5.41 454.49 5.12C457.07 4.83 459.67 2.45 458.93 -0.0299988C465.626 3.75067 471.751 8.46454 477.12 13.97C478.569 15.6961 480.321 17.1431 482.29 18.24C484.29 19.18 487.03 19.14 488.55 17.48C489.77 16.15 490.38 13.83 492.18 13.75C493.3 13.75 494.18 14.63 494.89 15.52C497.444 18.7882 499.525 22.4005 501.07 26.25C504.276 25.8179 507.416 24.9916 510.42 23.79C507.3 26.42 507.22 31.32 508.71 35.12C510.2 38.92 512.9 42.12 514.71 45.76C516.511 49.6694 517.721 53.8248 518.3 58.09C519.21 63.43 519.22 70.16 514.48 72.78C510.36 75.06 505.25 72.63 501.48 69.78C491.1 62 489.12 64.28 480.71 72.88Z" fill="#01E7C0"/>
<path id="Vector_35" d="M533 545.34L602.29 539.09C605.075 538.84 607.655 537.52 609.486 535.407C611.318 533.294 612.258 530.552 612.11 527.76L612.06 526.76C611.945 524.537 611.145 522.403 609.771 520.652C608.396 518.901 606.513 517.619 604.38 516.98L593.18 513.62C592.171 513.317 591.123 513.162 590.07 513.16H564.66C563.965 513.162 563.272 513.229 562.59 513.36C557.22 514.41 532.51 519.27 531.59 520.16C531.1 520.66 528.16 522.86 525.32 524.96C523.62 526.215 522.327 527.942 521.6 529.926C520.873 531.91 520.744 534.064 521.23 536.12L521.44 537.04C522.034 539.59 523.533 541.837 525.66 543.363C527.786 544.89 530.394 545.592 533 545.34Z" fill="#464A5F"/>
<path id="Vector_36" d="M499.16 523.68L527.16 515.68L579.16 508.68C579.16 508.68 612.16 499.68 615.16 527.68L612.36 532.42C612.36 532.42 615.16 514.68 581.16 519.68C581.16 519.68 520.03 517.63 522.6 541.68C522.6 541.66 501.16 537.68 499.16 523.68Z" fill="#6C63FF"/>
<path id="Vector_37" d="M537.16 506.69C541.026 506.69 544.16 506.242 544.16 505.69C544.16 505.138 541.026 504.69 537.16 504.69C533.294 504.69 530.16 505.138 530.16 505.69C530.16 506.242 533.294 506.69 537.16 506.69Z" fill="#6C63FF"/>
<path id="Vector_38" d="M599.66 506.19H594.66V515.19H599.66V506.19Z" fill="#6C63FF"/>
<path id="Vector_39" d="M539.66 506.19H534.66V515.19H539.66V506.19Z" fill="#6C63FF"/>
<path id="Vector_40" d="M603.611 507.006C604.105 505.717 601.16 503.39 597.034 501.81C592.908 500.229 589.163 499.993 588.669 501.282C588.175 502.572 591.12 504.898 595.246 506.479C599.372 508.059 603.117 508.295 603.611 507.006Z" fill="#6C63FF"/>
<path id="Vector_41" d="M313.19 522.21C315.33 524.44 317.51 526.71 320.26 528.11C322.981 529.318 325.878 530.084 328.84 530.38C359.133 535.047 389.32 540.267 419.4 546.04C427.87 547.68 436.4 549.38 444.4 552.67C448.48 554.36 452.4 556.46 456.4 558.23C479.4 568.32 505.4 567.67 530.49 566.83C535.4 566.67 540.49 566.47 544.92 564.42C548.23 562.91 551.26 560.04 551.56 556.42C552.08 550.13 544.93 546.42 539.22 543.71C525.59 537.28 513.71 526.82 506.53 513.56C505.25 511.22 504.21 508.07 506.01 506.09C507.36 504.61 509.65 504.6 511.66 504.68C520.06 505.007 528.46 504.92 536.86 504.42C541.21 504.15 546.97 502.09 546.28 497.8C545.98 495.96 544.46 494.59 543.02 493.39C535.45 487.03 526.86 480.48 516.97 480.67C511.78 480.77 506.83 482.75 501.97 484.42C475.79 493.3 447.6 493.79 419.97 493.61C413.21 493.61 406.4 493.48 399.78 492.1C394.343 490.814 389.016 489.099 383.85 486.97C367.09 480.58 350.26 474.15 334.74 465.18C328.57 461.62 321.69 457.5 314.81 459.33C311.723 460.332 308.915 462.045 306.61 464.33C298.42 471.73 291.51 480.79 293.84 492.15C296.21 504.09 305.05 513.71 313.19 522.21Z" fill="#FBBEBE"/>
<path id="Vector_42" d="M308.73 329.09C311.31 337.44 312.82 346.28 317.26 353.81C321.97 361.81 329.81 368.01 332.53 376.88C334.45 383.16 333.53 389.88 333.53 396.47C333.53 403.94 334.94 411.64 339.07 417.86C341.15 421 343.86 423.66 346.23 426.59C356.74 439.59 359.98 456.95 361.29 473.59C351.29 467.93 339.59 462.09 328.76 465.98C324.38 467.56 320.68 470.6 317.24 473.75C310.564 479.845 304.462 486.54 299.01 493.75C296.15 497.52 293.34 502.13 294.58 506.69C288.66 498.09 282.66 489.43 278.06 479.97C274.8 473.21 272.27 466.07 268.36 459.65C263.44 451.58 256.51 444.95 250.68 437.51C237.58 420.79 230.23 400.09 226.66 379.2C223.09 358.31 222.94 336.91 223.05 315.67C223.05 308.67 223.2 301.39 226.15 295.02C227.9 291.23 230.57 287.95 233.22 284.72C236.58 280.61 240.04 276.42 244.61 273.72C259.15 265.16 274.75 279.35 284.47 289.06C295.68 300.241 304.006 313.978 308.73 329.09V329.09Z" fill="#192534"/>
<path id="Vector_43" d="M559.39 281.09C560.737 282.319 561.825 283.804 562.59 285.46C563.35 287.46 563.15 289.66 562.99 291.79C562.042 304.473 562.942 317.226 565.66 329.65C567.29 337.16 569.35 345.85 564.56 351.86C563.82 352.65 563.151 353.503 562.56 354.41C560.34 358.57 564.44 363.1 567.56 366.67C577.04 377.67 578.56 394.88 571.21 407.43C569.82 409.82 568.12 412.08 567.34 414.72C566.813 416.892 566.604 419.128 566.72 421.36L566.76 438.09C556.25 436.68 544.5 435.58 536.05 441.99C528.92 447.39 526.1 456.79 520.05 463.33C514.18 469.63 505.05 473.69 502.76 481.99L502.88 447.42C503.029 442.827 502.782 438.23 502.14 433.68C500.94 426.53 497.83 419.84 496.01 412.82C493.63 403.64 493.48 394.05 493.34 384.56C493.11 368.89 492.89 353.05 496.14 337.72C497.47 331.48 499.36 325.37 500.82 319.16C503.47 307.96 504.82 296.3 509.47 285.78C514.12 275.26 523.25 265.72 534.71 264.59C546.78 263.38 551.9 273.26 559.39 281.09Z" fill="#192534"/>
<path id="Vector_44" d="M604.154 505.441C607.502 503.508 607.306 496.9 603.716 490.683C600.127 484.465 594.502 480.991 591.154 482.924C587.806 484.857 588.002 491.465 591.592 497.683C595.182 503.9 600.806 507.374 604.154 505.441Z" fill="#FBBEBE"/>
<path id="Vector_45" opacity="0.1" d="M604.154 505.441C607.502 503.508 607.306 496.9 603.716 490.683C600.127 484.465 594.502 480.991 591.154 482.924C587.806 484.857 588.002 491.465 591.592 497.683C595.182 503.9 600.806 507.374 604.154 505.441Z" fill="black"/>
</g>
<defs>
<clipPath id="clip0">
<rect width="1041.32" height="572.19" fill="white"/>
</clipPath>
</defs>
</svg>
